<?xml version="1.0" encoding="utf-8"?>
<!-- Generator: Adobe Illustrator 26.0.2, SVG Export Plug-In . SVG Version: 6.00 Build 0)  -->
<svg version="1.1" xmlns="http://www.w3.org/2000/svg" xmlns:xlink="http://www.w3.org/1999/xlink" x="0px" y="0px"
	 viewBox="0 0 302 77" style="enable-background:new 0 0 302 77;" xml:space="preserve">

<g id="Layer_1">
	<path class="st0" d="M31.5,25.8L31.5,25.8L31.5,25.8v27.1c0,2.4,2,4.4,4.4,4.4c2.4,0,4.4-2,4.4-4.4V25.5c0-1.9,1.6-3.5,3.5-3.5h0
		c1.9,0,3.5,1.6,3.5,3.5v30c0,3.3-3.8,2.6-3.8,2.6c0,0,0,0,0,0c-2.4-0.3-4.6,1.4-4.9,3.9c-0.3,2.4,1.4,4.6,3.9,4.9c0,0,0,0,0,0
		c0,0,2.4,0.3,5.1-0.4c2.6-0.6,5.5-2,7.2-5c1.5,0.7,3.2,1,4.9,1C66.5,62.5,72,57,72,50.2c0-6.8-5.5-12.3-12.3-12.3
		c-1.2,0-2.4,0.2-3.5,0.5V25.5c0-6.8-5.5-12.4-12.4-12.4h0h0c-3,0-5.8,1.1-7.9,2.9c-3.5-2.9-7.4-2.9-8.1-2.9c-3.2,0-6.3,1.3-8.6,3.6
		c-2.3,2.3-3.6,5.5-3.6,8.7v6.2c0,2.4,2,4.4,4.4,4.4s4.4-2,4.4-4.4v-6.2c0-0.9,0.4-1.8,1-2.5c0.7-0.7,1.6-1,2.5-1c0.1,0,0.1,0,0.2,0
		c0.1,0,1.3,0,2.3,1c0.7,0.7,1,1.6,1,2.5C31.4,25.6,31.5,25.7,31.5,25.8L31.5,25.8z M43.8,20.1L43.8,20.1c-3,0-5.5,2.4-5.5,5.5v27.4
		c0,1.4-1.1,2.5-2.5,2.5c-1.4,0-2.5-1.1-2.5-2.5V25.8l0-0.2c0-1.4-0.6-2.8-1.6-3.9C30.1,20,28.1,20,28.1,20l-0.2,0
		c-1.4,0-2.8,0.6-3.9,1.6c-1,1-1.6,2.4-1.6,3.9v6.2c0,1.4-1.1,2.5-2.5,2.5s-2.5-1.1-2.5-2.5v-6.2c0-2.8,1.1-5.4,3.1-7.4
		c1.9-1.9,4.5-3,7.3-3c0,0,0,0,0,0c0.5,0,4.3-0.1,7.3,3c0.4,0.4,1,0.4,1.4,0c1.9-1.8,4.4-3,7.3-3h0c5.7,0,10.4,4.7,10.4,10.4v14.2
		c0,0.3,0.2,0.6,0.4,0.8c0.3,0.2,0.6,0.2,0.9,0.1c1.3-0.5,2.7-0.8,4.1-0.8c5.7,0,10.4,4.7,10.4,10.4c0,5.7-4.7,10.4-10.4,10.4
		c-1.8,0-3.4-0.4-4.9-1.2c-0.2-0.1-0.5-0.2-0.8-0.1c-0.3,0.1-0.5,0.3-0.6,0.5c-1.3,3-4,4.3-6.3,4.8c-2.3,0.5-4.3,0.4-4.5,0.3
		c-1.4-0.2-2.3-1.4-2.2-2.7c0.2-1.3,1.4-2.3,2.7-2.2c0.5,0.1,6,0.7,6.1-4.6v-30C49.3,22.5,46.8,20.1,43.8,20.1L43.8,20.1z
		 M59.7,44.8c-3,0-5.4,2.4-5.4,5.4c0,3,2.4,5.4,5.4,5.4c3,0,5.4-2.4,5.4-5.4C65.1,47.2,62.7,44.8,59.7,44.8z M59.7,46.7
		c1.9,0,3.5,1.6,3.5,3.5c0,1.9-1.6,3.5-3.5,3.5c-1.9,0-3.5-1.6-3.5-3.5C56.2,48.3,57.8,46.7,59.7,46.7z"/>
</g>
<g id="Layer_2">
	<g>
		<path class="st1" d="M86.7,51.7V18.1h7.8v27.3h16.8v6.3H86.7z"/>
		<path class="st1" d="M127.2,52.1c-2.8,0-5.2-0.6-7.3-1.7c-2.1-1.2-3.8-2.7-5-4.7c-1.2-2-1.8-4.3-1.8-6.8c0-2.6,0.6-4.9,1.8-6.9
			c1.2-2,2.9-3.6,5-4.7c2.1-1.1,4.6-1.7,7.3-1.7c2.7,0,5.2,0.6,7.3,1.7c2.1,1.1,3.8,2.7,5,4.7c1.2,2,1.8,4.3,1.8,6.9
			c0,2.6-0.6,4.8-1.8,6.8c-1.2,2-2.9,3.6-5,4.7C132.4,51.5,129.9,52.1,127.2,52.1z M127.2,45.9c1.2,0,2.4-0.3,3.4-0.9
			s1.8-1.4,2.4-2.5c0.6-1.1,0.9-2.3,0.9-3.8c0-1.5-0.3-2.8-0.9-3.8s-1.4-1.9-2.4-2.4c-1-0.6-2.1-0.9-3.4-0.9s-2.4,0.3-3.4,0.9
			c-1,0.6-1.8,1.4-2.4,2.4c-0.6,1.1-0.9,2.3-0.9,3.8c0,1.5,0.3,2.7,0.9,3.8c0.6,1.1,1.4,1.9,2.4,2.5S126,45.9,127.2,45.9z"/>
		<path class="st1" d="M157.4,50.4c-2.4,0-4.6-0.5-6.5-1.6c-1.9-1-3.5-2.5-4.7-4.4c-1.2-1.9-1.8-4.1-1.8-6.6c0-2.5,0.6-4.7,1.8-6.6
			c1.2-1.9,2.7-3.3,4.7-4.3c1.9-1,4.1-1.5,6.5-1.5c2.2,0,4.1,0.4,5.8,1.3c1.7,0.9,3,2.2,3.9,4.1c0.9,1.8,1.4,4.2,1.4,7.1
			c0,2.8-0.5,5.2-1.4,7c-0.9,1.8-2.2,3.2-3.9,4.1C161.5,50,159.5,50.4,157.4,50.4z M158.5,61.4c-2.4,0-4.8-0.3-7-0.9
			c-2.3-0.6-4.1-1.5-5.6-2.7l3-5.4c1.1,0.9,2.5,1.6,4.2,2.1c1.7,0.5,3.3,0.8,5,0.8c2.7,0,4.6-0.6,5.8-1.8c1.2-1.2,1.8-2.9,1.8-5.3
			v-3.9L166,38l-0.1-6.5v-5.6h7.1v21.5c0,4.8-1.2,8.3-3.7,10.6C166.8,60.3,163.2,61.4,158.5,61.4z M158.9,44.3
			c1.3,0,2.5-0.3,3.5-0.8c1-0.5,1.8-1.3,2.4-2.2s0.9-2.1,0.9-3.3c0-1.3-0.3-2.4-0.9-3.3c-0.6-0.9-1.4-1.7-2.4-2.2
			c-1-0.5-2.2-0.8-3.5-0.8s-2.5,0.3-3.5,0.8s-1.8,1.3-2.4,2.2c-0.6,0.9-0.9,2.1-0.9,3.3c0,1.2,0.3,2.4,0.9,3.3
			c0.6,1,1.4,1.7,2.4,2.2C156.4,44,157.5,44.3,158.9,44.3z"/>
		<path class="st1" d="M183.7,22.3c-1.4,0-2.5-0.4-3.4-1.2c-0.9-0.8-1.3-1.8-1.3-3c0-1.2,0.4-2.2,1.3-3c0.9-0.8,2-1.2,3.4-1.2
			c1.4,0,2.5,0.4,3.4,1.1c0.9,0.8,1.3,1.7,1.3,2.9c0,1.2-0.4,2.3-1.3,3.1C186.3,21.9,185.1,22.3,183.7,22.3z M180,51.7V25.9h7.5
			v25.8H180z"/>
		<path class="st1" d="M203.1,52.1c-2.2,0-4.3-0.3-6.4-0.8c-2-0.5-3.6-1.2-4.8-2l2.5-5.4c1.2,0.7,2.6,1.3,4.2,1.8
			c1.6,0.5,3.2,0.7,4.8,0.7c1.7,0,3-0.2,3.7-0.6c0.7-0.4,1.1-1,1.1-1.7c0-0.6-0.3-1.1-0.8-1.4c-0.6-0.3-1.3-0.5-2.2-0.7
			c-0.9-0.2-1.9-0.3-3-0.5c-1.1-0.2-2.2-0.4-3.3-0.6c-1.1-0.3-2.1-0.7-3.1-1.2c-0.9-0.5-1.7-1.3-2.2-2.2c-0.6-0.9-0.8-2.1-0.8-3.6
			c0-1.6,0.5-3.1,1.4-4.3c0.9-1.2,2.3-2.2,4.1-3c1.8-0.7,3.9-1.1,6.4-1.1c1.8,0,3.6,0.2,5.4,0.6c1.8,0.4,3.3,0.9,4.6,1.7l-2.5,5.3
			c-1.2-0.7-2.5-1.2-3.8-1.5c-1.3-0.3-2.5-0.4-3.7-0.4c-1.7,0-2.9,0.2-3.6,0.7c-0.8,0.4-1.2,1-1.2,1.7c0,0.6,0.3,1.1,0.8,1.4
			c0.6,0.3,1.3,0.6,2.2,0.8s1.9,0.4,3,0.5c1.1,0.1,2.2,0.4,3.3,0.6c1.1,0.3,2.1,0.7,3,1.2s1.7,1.2,2.2,2.2c0.6,0.9,0.9,2.1,0.9,3.6
			c0,1.6-0.5,3-1.4,4.2c-1,1.2-2.3,2.2-4.2,2.9C207.9,51.7,205.7,52.1,203.1,52.1z"/>
		<path class="st1" d="M216.8,32.2v-5.8h17.9v5.8H216.8z M230.5,52.1c-3,0-5.4-0.8-7.1-2.3c-1.7-1.6-2.5-3.9-2.5-6.9V20.2h7.5v22.6
			c0,1.1,0.3,1.9,0.9,2.5c0.6,0.6,1.4,0.9,2.4,0.9c1.2,0,2.2-0.3,3-1l2,5.3c-0.8,0.5-1.7,1-2.8,1.2
			C232.7,51.9,231.6,52.1,230.5,52.1z"/>
		<path class="st1" d="M244.5,22.3c-1.4,0-2.5-0.4-3.4-1.2c-0.9-0.8-1.3-1.8-1.3-3c0-1.2,0.4-2.2,1.3-3c0.9-0.8,2-1.2,3.4-1.2
			c1.4,0,2.5,0.4,3.4,1.1c0.9,0.8,1.3,1.7,1.3,2.9c0,1.2-0.4,2.3-1.3,3.1C247.1,21.9,245.9,22.3,244.5,22.3z M240.8,51.7V25.9h7.5
			v25.8H240.8z"/>
		<path class="st1" d="M266.2,52.1c-2.4,0-4.6-0.5-6.6-1.6c-2-1.1-3.5-2.6-4.6-4.6c-1.1-2-1.7-4.3-1.7-7.1c0-2.7,0.6-5,1.7-7
			c1.1-2,2.7-3.5,4.6-4.6c2-1.1,4.1-1.7,6.6-1.7c2.3,0,4.2,0.5,5.8,1.4c1.6,1,2.9,2.4,3.7,4.4c0.9,2,1.3,4.4,1.3,7.5
			c0,3-0.4,5.5-1.3,7.5c-0.9,2-2.2,3.4-3.8,4.4S268.4,52.1,266.2,52.1z M267.5,45.9c1.2,0,2.3-0.3,3.3-0.9s1.8-1.4,2.4-2.5
			c0.6-1.1,0.9-2.3,0.9-3.8c0-1.5-0.3-2.8-0.9-3.8s-1.4-1.9-2.4-2.4c-1-0.6-2.1-0.9-3.3-0.9c-1.2,0-2.4,0.3-3.4,0.9
			c-1,0.6-1.8,1.4-2.4,2.4c-0.6,1.1-0.9,2.3-0.9,3.8c0,1.5,0.3,2.7,0.9,3.8c0.6,1.1,1.4,1.9,2.4,2.5S266.3,45.9,267.5,45.9z M274,61
			V46.5l0.5-7.6l-0.1-7.7v-5.3h7.2V61H274z"/>
	</g>
</g>
</svg>
